<svg width="16" height="20" viewBox="0 0 16 20" fill="none" xmlns="http://www.w3.org/2000/svg">
<path d="M14.2222 1.77778V17.7778H8.88889V14.6667H7.11111V17.7778H1.77778V1.77778H14.2222ZM10.6667 5.33333H12.4444V3.55556H10.6667V5.33333ZM7.11111 5.33333H8.88889V3.55556H7.11111V5.33333ZM3.55556 5.33333H5.33333V3.55556H3.55556V5.33333ZM10.6667 8.88889H12.4444V7.11111H10.6667V8.88889ZM7.11111 8.88889H8.88889V7.11111H7.11111V8.88889ZM3.55556 8.88889H5.33333V7.11111H3.55556V8.88889ZM10.6667 12.4444H12.4444V10.6667H10.6667V12.4444ZM7.11111 12.4444H8.88889V10.6667H7.11111V12.4444ZM3.55556 12.4444H5.33333V10.6667H3.55556V12.4444ZM10.6667 16H12.4444V14.2222H10.6667V16ZM3.55556 16H5.33333V14.2222H3.55556V16ZM16 0H0V19.5556H16V0Z" fill="#545454"/>
</svg>
