<svg width="25" height="25" viewBox="0 0 25 25" fill="none" xmlns="http://www.w3.org/2000/svg">
<circle cx="12.5" cy="12.5" r="12.5" fill="#F6F6F7"/>
<path fill-rule="evenodd" clip-rule="evenodd" d="M15.6519 9.08592C15.6519 9.48768 15.5728 9.88552 15.4191 10.2567C15.2654 10.6279 15.0401 10.9652 14.756 11.2493C14.472 11.5334 14.1347 11.7588 13.7636 11.9126C13.3924 12.0664 12.9946 12.1456 12.5928 12.1456C11.7814 12.1457 11.0032 11.8234 10.4294 11.2498C9.85563 10.6761 9.53323 9.89794 9.53314 9.08654C9.5331 8.68478 9.6122 8.28694 9.76591 7.91575C9.91962 7.54455 10.1449 7.20726 10.429 6.92315C11.0027 6.34934 11.7808 6.02694 12.5922 6.02686C13.4036 6.02677 14.1818 6.34902 14.7556 6.9227C15.3294 7.49639 15.6518 8.27452 15.6519 9.08592ZM12.5925 13.0815C8.18689 13.0815 6.47314 15.8853 6.47314 17.1897C6.47314 18.4934 10.1213 18.8409 12.5925 18.8409C15.0638 18.8409 18.7119 18.4934 18.7119 17.1897C18.7119 15.8853 16.9981 13.0815 12.5925 13.0815Z" fill="#D1D3D6"/>
</svg>
